# xmcd CD database file
#
# Track frame offsets:
#	150
#	14270
#	29665
#	45645
#	60110
#	72892
#	90342
#	105610
#	118192
#	134160
#
# Disc length: 1951 seconds
#
# Revision: 2
# Processed by: cddbd v1.5.2PL0 Copyright (c) Steve Scherf et al.
# Submitted via: CDex 1.60beta1
#
DISCID=83079d0a
DTITLE=Keith Gattis - Keith Gattis
DYEAR=1996
DGENRE=Country
TTITLE0=Real Deal
TTITLE1=Everywhere I See You There
TTITLE2=The Puppet
TTITLE3=Back In Your Arms
TTITLE4=Whoop-De-Do
TTITLE5=Little Drops Of My Heart
TTITLE6=Scrapin' Off The Pain
TTITLE7=Heartache Hero
TTITLE8=Only Lonely Fool
TTITLE9=Look Out Below
EXTD=YEAR: 1996
EXTT0=
EXTT1=
EXTT2=
EXTT3=
EXTT4=
EXTT5=
EXTT6=
EXTT7=
EXTT8=
EXTT9=
PLAYORDER=
